<?xml version="1.0" encoding="UTF-8" standalone="no" ?>
<!DOCTYPE svg PUBLIC "-//W3C//DTD SVG 1.1//EN" "http://www.w3.org/Graphics/SVG/1.1/DTD/svg11.dtd">
<svg xmlns="http://www.w3.org/2000/svg" xmlns:xlink="http://www.w3.org/1999/xlink" version="1.1" width="1080" height="1080" viewBox="0 0 1080 1080" xml:space="preserve">
<desc>Created with Fabric.js 5.2.4</desc>
<defs>
</defs>
<g transform="matrix(1 0 0 1 540 540)" id="f447eaa8-4733-45c9-b01a-5130e5be0760"  >
<rect style="stroke: none; stroke-width: 1; stroke-dasharray: none; stroke-linecap: butt; stroke-dashoffset: 0; stroke-linejoin: miter; stroke-miterlimit: 4; fill: rgb(255,255,255); fill-rule: nonzero; opacity: 1; visibility: hidden;" vector-effect="non-scaling-stroke"  x="-540" y="-540" rx="0" ry="0" width="1080" height="1080" />
</g>
<g transform="matrix(1 0 0 1 540 540)" id="d86c35c4-f154-4e2e-8cac-51ed4138e235"  >
</g>
<g transform="matrix(5.79 0 0 5.79 101.08 451.44)"  >
<path style="stroke: none; stroke-width: 1; stroke-dasharray: none; stroke-linecap: butt; stroke-dashoffset: 0; stroke-linejoin: miter; stroke-miterlimit: 4; fill: rgb(238,101,87); fill-rule: nonzero; opacity: 1;" vector-effect="non-scaling-stroke"  transform=" translate(-12.21, -12)" d="M 20.5002 8.17791 C 20.5378 8.13788 20.5701 8.13315 20.6211 8.1549 C 20.9007 8.27499 21.1707 8.41304 21.434 8.56401 C 21.8489 8.80166 22.2456 9.06641 22.6146 9.36836 C 22.7214 9.45566 22.7769 9.41942 22.8471 9.33337 C 23.0831 9.0434 23.323 8.75659 23.5615 8.46851 C 23.8351 8.13788 24.1083 7.80725 24.3827 7.47757 C 24.4347 7.41485 24.4417 7.37325 24.367 7.3121 C 24.0765 7.07508 23.7693 6.85981 23.4567 6.65337 C 22.5954 6.08478 21.6751 5.63344 20.6897 5.30596 C 19.5235 4.91829 18.3262 4.73989 17.0987 4.72949 C 16.5667 4.72508 16.0367 4.75408 15.5079 4.80923 C 15.4108 4.81932 15.3684 4.7982 15.3662 4.68883 C 15.3582 4.32133 15.3415 3.95351 15.3204 3.58632 C 15.3149 3.49145 15.3476 3.44953 15.4358 3.41801 C 15.7093 3.31999 15.9854 3.23111 16.2672 3.16083 C 16.7325 3.04452 17.2026 2.95312 17.6813 2.91183 C 17.7698 2.90427 17.8163 2.88599 17.8042 2.7722 C 17.7185 1.96975 17.6413 1.16635 17.5662 0.362945 C 17.5563 0.256098 17.5059 0.237817 17.4126 0.246958 C 16.8335 0.302115 16.2621 0.403919 15.6987 0.543545 C 15.1626 0.676552 14.6348 0.837296 14.123 1.04784 C 13.7655 1.19503 13.4134 1.35199 13.0729 1.53259 C 12.3328 1.92594 11.6495 2.39934 11.012 2.93957 C 10.4236 3.43819 9.89517 3.99196 9.40264 4.58009 C 9.27983 4.72697 9.27117 4.73138 9.12848 4.59806 C 8.88766 4.37365 8.6584 4.13569 8.40187 3.9305 C 8.26944 3.8246 8.28579 3.74612 8.3464 3.62351 C 8.56092 3.19077 8.80141 2.77315 9.08166 2.37791 C 9.16054 2.21307 9.28239 2.07754 9.3911 1.93287 C 9.42669 1.88559 9.46613 1.84084 9.50332 1.79451 C 9.57323 1.70657 9.58124 1.64227 9.47383 1.5597 C 9.27149 1.40431 9.05697 1.2609 8.88574 1.06864 C 8.46119 0.727612 8.03504 0.388475 7.61402 0.0436644 C 7.53866 -0.0181115 7.49602 -0.0152748 7.43894 0.0581628 C 7.26867 0.27753 7.09937 0.497213 6.93711 0.722569 C 6.18421 1.76677 5.61344 2.8967 5.25431 4.12907 C 4.97406 5.09006 4.83393 6.0706 4.81533 7.06878 C 4.80507 7.62792 4.82719 8.18579 4.89229 8.74146 C 4.90672 8.86438 4.87433 8.91134 4.74511 8.91355 C 4.3709 8.91985 3.99702 8.93498 3.62313 8.94853 C 3.55451 8.95105 3.51154 8.92994 3.48653 8.86217 C 3.33678 8.45716 3.21173 8.04522 3.12451 7.62287 C 3.05685 7.29477 2.98567 6.96666 2.96643 6.63099 C 2.96065 6.52793 2.91672 6.4901 2.80866 6.50397 C 2.61659 6.52856 2.42291 6.54085 2.2302 6.55976 C 1.60652 6.62091 0.983487 6.68426 0.35949 6.74225 C 0.274516 6.75013 0.238282 6.76211 0.248864 6.86044 C 0.295038 7.28878 0.363659 7.71301 0.453443 8.13504 C 0.650646 9.06263 0.956552 9.95145 1.37918 10.804 C 1.78705 11.6266 2.29401 12.385 2.89524 13.0796 C 3.44581 13.716 4.05313 14.2991 4.72394 14.8154 C 4.79353 14.8689 4.79802 14.9162 4.7342 14.9821 C 4.48666 15.2383 4.23526 15.4917 4.00215 15.7603 C 3.90018 15.8778 3.81969 15.8684 3.69592 15.8094 C 3.02158 15.487 2.38636 15.1047 1.80822 14.6338 C 1.72709 14.5676 1.67097 14.5679 1.6046 14.6556 C 1.47858 14.8217 1.34455 14.9821 1.21115 15.1425 C 0.820594 15.6118 0.430355 16.0814 0.0346654 16.5467 C -0.0233734 16.615 -0.00253073 16.6444 0.0529428 16.6856 C 0.225135 16.8142 0.395404 16.9457 0.568558 17.073 C 1.09379 17.4591 1.65302 17.7929 2.23533 18.0866 C 2.7689 18.3558 3.32492 18.573 3.89665 18.7548 C 4.75697 19.0284 5.63845 19.1847 6.5379 19.2497 C 7.11925 19.2919 7.70156 19.295 8.28355 19.255 C 8.50448 19.2399 8.72541 19.2216 8.94602 19.2021 C 9.01625 19.1958 9.05922 19.2046 9.0621 19.2897 C 9.07429 19.6802 9.09 20.0704 9.10667 20.4606 C 9.10924 20.5249 9.08583 20.5627 9.0233 20.5829 C 8.90947 20.6198 8.79724 20.6623 8.68341 20.6989 C 8.04915 20.9006 7.3995 21.033 6.73702 21.1039 C 6.64083 21.1143 6.61197 21.142 6.62191 21.2388 C 6.70528 22.0416 6.78544 22.8446 6.86176 23.648 C 6.87074 23.741 6.89895 23.77 6.99611 23.764 C 7.35621 23.7426 7.70925 23.6748 8.06262 23.6115 C 8.91877 23.4577 9.74702 23.208 10.5429 22.8651 C 11.4048 22.4938 12.2116 22.0283 12.9513 21.4509 C 13.4541 21.0582 13.9204 20.6299 14.3622 20.1728 C 14.6069 19.9197 14.8278 19.6474 15.0696 19.3924 C 15.1331 19.244 15.1498 19.244 15.2694 19.3931 C 15.5406 19.6373 15.81 19.8841 16.0851 20.1246 C 16.1547 20.1854 16.1563 20.2365 16.1191 20.3131 C 15.7872 20.9945 15.3922 21.6369 14.9029 22.2206 C 14.8185 22.3211 14.8371 22.3747 14.9324 22.4507 C 15.5592 22.9487 16.1826 23.4511 16.8056 23.9538 C 16.8803 24.0143 16.9278 24.0222 16.9955 23.9364 C 17.2068 23.6682 17.4149 23.3981 17.6134 23.1198 C 18.111 22.4217 18.5077 21.6706 18.8331 20.8845 C 19.031 20.4067 19.1801 19.9106 19.3035 19.4066 C 19.4838 18.671 19.5787 17.9256 19.6117 17.172 C 19.6399 16.5268 19.604 15.8829 19.5357 15.2412 C 19.5258 15.1485 19.5363 15.0962 19.6505 15.0943 C 20.0244 15.0874 20.3986 15.0785 20.7722 15.058 C 20.8911 15.0514 20.9264 15.0996 20.9626 15.1964 C 21.2262 15.9027 21.3862 16.6318 21.467 17.3784 C 21.4782 17.4824 21.5167 17.5127 21.6277 17.501 C 22.4399 17.4175 23.2524 17.3397 24.0656 17.2659 C 24.1589 17.2574 24.1827 17.2268 24.1782 17.142 C 24.1641 16.8744 24.1192 16.6103 24.0727 16.3481 C 23.947 15.6418 23.7664 14.949 23.5163 14.2736 C 23.3153 13.7308 23.069 13.2095 22.7872 12.7043 C 22.4812 12.1555 22.1221 11.6405 21.7235 11.1536 C 21.3477 10.6943 20.9408 10.2619 20.4951 9.86603 C 20.2421 9.6413 19.9942 9.41122 19.7246 9.20509 C 19.6726 9.16538 19.6034 9.12346 19.6806 9.04277 C 19.9551 8.75533 20.2286 8.46693 20.5012 8.17728 L 20.5002 8.17791 Z M 18.9967 12.4597 C 18.332 12.4846 17.6672 12.507 17.0025 12.5306 C 16.8085 12.5375 16.6148 12.5508 16.4212 12.5523 C 16.3141 12.5533 16.2839 12.587 16.3067 12.692 C 16.4103 13.171 16.5081 13.6514 16.6078 14.1314 C 16.7518 14.8251 16.8563 15.5233 16.8842 16.2324 C 16.8951 16.5095 16.9005 16.7862 16.8951 17.0629 C 16.8945 17.0979 16.9108 17.1455 16.8743 17.1641 C 16.8258 17.189 16.8034 17.1342 16.7761 17.1096 C 16.3545 16.7298 15.935 16.3478 15.5143 15.9673 C 15.2668 15.7436 15.0157 15.5233 14.7701 15.297 C 14.7095 15.2412 14.6749 15.2437 14.6306 15.3102 C 14.4142 15.6358 14.1948 15.9592 13.9778 16.2844 C 13.5532 16.9205 13.1101 17.5429 12.5938 18.1125 C 12.3819 18.3463 12.1593 18.5698 11.9297 18.7863 C 11.8913 18.8226 11.8534 18.8916 11.7989 18.8721 C 11.7361 18.8494 11.7563 18.769 11.754 18.7148 C 11.7377 18.3382 11.7277 17.9612 11.7136 17.5846 C 11.6957 17.1036 11.6729 16.6226 11.6585 16.1416 C 11.6549 16.0282 11.6145 16.0026 11.5055 16.0253 C 10.9104 16.1498 10.3159 16.2806 9.71752 16.3884 C 8.86778 16.5416 8.01035 16.6314 7.14426 16.61 C 7.11668 16.6094 7.08846 16.6097 7.06121 16.605 C 7.03075 16.5999 6.99098 16.605 6.97752 16.5697 C 6.96373 16.5331 6.999 16.5132 7.01984 16.4909 C 7.31805 16.1706 7.61562 15.8498 7.91511 15.5305 C 8.21813 15.2074 8.52212 14.8853 8.82642 14.5635 C 8.90017 14.4854 8.94025 14.4359 8.80846 14.3527 C 8.26591 14.011 7.72849 13.6615 7.19909 13.3006 C 6.49332 12.819 5.83373 12.2822 5.2511 11.6588 C 5.23122 11.6377 5.18857 11.6188 5.21294 11.5822 C 5.23186 11.5538 5.27162 11.5639 5.30337 11.5627 C 6.00048 11.5349 6.69726 11.5075 7.39437 11.4798 C 7.60215 11.4716 7.80994 11.4577 8.01772 11.4561 C 8.12579 11.4552 8.14118 11.4111 8.12226 11.3203 C 8.00169 10.7422 7.8808 10.1645 7.76633 9.58552 C 7.6634 9.06515 7.58965 8.54037 7.55502 8.01086 C 7.53385 7.68622 7.52552 7.36127 7.53321 7.036 C 7.52488 6.90079 7.5191 6.80024 7.5191 6.80024 C 7.5191 6.80024 8.09404 7.06216 8.66256 7.609 C 9.42188 8.33928 9.66526 8.60561 9.72778 8.67747 C 9.84707 8.47923 10.4791 7.43912 10.9248 6.88629 C 11.3692 6.33503 11.8428 5.85501 12.177 5.53604 C 12.2895 5.42226 12.4046 5.311 12.5223 5.20227 C 12.5579 5.16949 12.5961 5.13891 12.6467 5.09573 C 12.7032 5.38539 12.6804 5.65771 12.6939 5.92719 C 12.7259 6.57142 12.7513 7.21566 12.774 7.86021 C 12.7779 7.96642 12.8 8.00424 12.9183 7.97966 C 13.4458 7.86998 13.9749 7.7666 14.504 7.66416 C 15.4297 7.48545 16.3631 7.3805 17.3084 7.40224 C 17.3572 7.4035 17.4258 7.38144 17.4485 7.43282 C 17.4752 7.4927 17.4049 7.52454 17.37 7.56267 C 16.8201 8.15553 16.2695 8.74745 15.7186 9.33936 C 15.6875 9.37277 15.6522 9.40271 15.6208 9.43581 C 15.4855 9.57827 15.4893 9.57795 15.6606 9.68795 C 16.5549 10.2632 17.4649 10.8173 18.28 11.5028 C 18.5955 11.7678 18.897 12.0484 19.1778 12.3494 C 19.1958 12.3686 19.2099 12.391 19.2391 12.4291 C 19.1474 12.4411 19.0724 12.4572 18.997 12.46 L 18.9967 12.4597 Z" stroke-linecap="round" />
</g>
<g transform="matrix(7.55 0 0 7.55 606.93 453.92)"  >
<path style="stroke: none; stroke-width: 1; stroke-dasharray: none; stroke-linecap: butt; stroke-dashoffset: 0; stroke-linejoin: miter; stroke-miterlimit: 4; fill: rgb(0,0,0); fill-rule: nonzero; opacity: 1;" vector-effect="non-scaling-stroke"  transform=" translate(-88.22, -13.15)" d="M 40.2837 6.03711 C 39.7043 6.03711 39.1899 6.15104 38.7407 6.37891 C 38.298 6.60026 37.9237 6.92253 37.6177 7.3457 C 37.3182 7.76888 37.0903 8.27995 36.9341 8.87891 C 36.7778 9.47786 36.6997 10.1517 36.6997 10.9004 C 36.6997 11.9095 36.8234 12.7721 37.0708 13.4883 C 37.3247 14.1979 37.7153 14.7415 38.2427 15.1191 C 38.77 15.4902 39.4504 15.6758 40.2837 15.6758 C 40.8631 15.6758 41.4425 15.6107 42.022 15.4805 C 42.6079 15.3503 43.2427 15.1647 43.9263 14.9238 L 43.9263 17.4629 C 43.2948 17.7233 42.673 17.9089 42.061 18.0195 C 41.4491 18.1367 40.7622 18.1953 40.0005 18.1953 C 38.5291 18.1953 37.3182 17.8926 36.3677 17.2871 C 35.4237 16.6751 34.7238 15.8223 34.2681 14.7285 C 33.8123 13.6283 33.5845 12.3457 33.5845 10.8809 C 33.5845 9.80013 33.731 8.81055 34.0239 7.91211 C 34.3169 7.01367 34.7466 6.23568 35.313 5.57812 C 35.8794 4.92057 36.5793 4.41276 37.4126 4.05469 C 38.2459 3.69661 39.203 3.51758 40.2837 3.51758 C 40.9933 3.51758 41.703 3.60872 42.4126 3.79102 C 43.1287 3.9668 43.8123 4.21094 44.4634 4.52344 L 43.4868 6.98438 C 42.953 6.73047 42.4159 6.50911 41.8755 6.32031 C 41.3351 6.13151 40.8045 6.03711 40.2837 6.03711 Z M 51.3714 6.85742 C 52.8363 6.85742 53.9593 7.17643 54.7406 7.81445 C 55.5218 8.45247 55.9124 9.42253 55.9124 10.7246 L 55.9124 18 L 53.8324 18 L 53.2562 16.5156 L 53.1781 16.5156 C 52.8656 16.9062 52.5466 17.2253 52.221 17.4727 C 51.8955 17.7201 51.5212 17.9023 51.098 18.0195 C 50.6748 18.1367 50.1605 18.1953 49.555 18.1953 C 48.9105 18.1953 48.3311 18.0716 47.8167 17.8242 C 47.3089 17.5768 46.9085 17.1992 46.6156 16.6914 C 46.3226 16.1771 46.1761 15.526 46.1761 14.7383 C 46.1761 13.5794 46.583 12.7266 47.3968 12.1797 C 48.2106 11.6263 49.4313 11.3203 51.0589 11.2617 L 52.9535 11.2031 L 52.9535 10.7246 C 52.9535 10.1517 52.8037 9.73177 52.5042 9.46484 C 52.2048 9.19792 51.7881 9.06445 51.2542 9.06445 C 50.7269 9.06445 50.2093 9.13932 49.7015 9.28906 C 49.1937 9.4388 48.6859 9.6276 48.1781 9.85547 L 47.1917 7.84375 C 47.7712 7.53776 48.419 7.29688 49.1351 7.12109 C 49.8578 6.94531 50.6032 6.85742 51.3714 6.85742 Z M 52.9535 12.9414 L 51.8011 12.9805 C 50.8376 13.0065 50.167 13.179 49.7894 13.498 C 49.4183 13.8171 49.2328 14.237 49.2328 14.7578 C 49.2328 15.2135 49.3662 15.5391 49.6331 15.7344 C 49.9001 15.9232 50.2484 16.0176 50.6781 16.0176 C 51.3161 16.0176 51.8532 15.8288 52.2894 15.4512 C 52.7321 15.0736 52.9535 14.5365 52.9535 13.8398 L 52.9535 12.9414 Z M 65.3498 6.87695 C 66.5151 6.87695 67.4526 7.19596 68.1623 7.83398 C 68.8719 8.46549 69.2267 9.48112 69.2267 10.8809 L 69.2267 18 L 66.2482 18 L 66.2482 11.623 C 66.2482 10.8418 66.105 10.2526 65.8185 9.85547 C 65.5386 9.45833 65.0959 9.25977 64.4904 9.25977 C 63.579 9.25977 62.9572 9.56901 62.6252 10.1875 C 62.2931 10.806 62.1271 11.6979 62.1271 12.8633 L 62.1271 18 L 59.1486 18 L 59.1486 7.08203 L 61.424 7.08203 L 61.8244 8.47852 L 61.9904 8.47852 C 62.2248 8.10091 62.5145 7.79492 62.8596 7.56055 C 63.2111 7.32617 63.5985 7.15365 64.0217 7.04297 C 64.4513 6.93229 64.8941 6.87695 65.3498 6.87695 Z M 75.0508 18 L 70.8906 7.08203 L 74.0059 7.08203 L 76.1153 13.3027 C 76.2324 13.6673 76.3236 14.0514 76.3887 14.4551 C 76.4603 14.8587 76.5091 15.2201 76.5352 15.5391 L 76.6133 15.5391 C 76.6328 15.194 76.6784 14.8262 76.75 14.4355 C 76.8281 14.0449 76.9291 13.6673 77.0528 13.3027 L 79.1524 7.08203 L 82.2676 7.08203 L 78.1074 18 L 75.0508 18 Z M 88.4725 6.85742 C 89.9374 6.85742 91.0604 7.17643 91.8417 7.81445 C 92.6229 8.45247 93.0135 9.42253 93.0135 10.7246 L 93.0135 18 L 90.9335 18 L 90.3573 16.5156 L 90.2792 16.5156 C 89.9667 16.9062 89.6476 17.2253 89.3221 17.4727 C 88.9966 17.7201 88.6223 17.9023 88.1991 18.0195 C 87.7759 18.1367 87.2616 18.1953 86.6561 18.1953 C 86.0116 18.1953 85.4322 18.0716 84.9178 17.8242 C 84.41 17.5768 84.0096 17.1992 83.7167 16.6914 C 83.4237 16.1771 83.2772 15.526 83.2772 14.7383 C 83.2772 13.5794 83.6841 12.7266 84.4979 12.1797 C 85.3117 11.6263 86.5324 11.3203 88.16 11.2617 L 90.0546 11.2031 L 90.0546 10.7246 C 90.0546 10.1517 89.9048 9.73177 89.6053 9.46484 C 89.3059 9.19792 88.8892 9.06445 88.3553 9.06445 C 87.828 9.06445 87.3104 9.13932 86.8026 9.28906 C 86.2948 9.4388 85.787 9.6276 85.2792 9.85547 L 84.2928 7.84375 C 84.8723 7.53776 85.52 7.29688 86.2362 7.12109 C 86.9588 6.94531 87.7043 6.85742 88.4725 6.85742 Z M 90.0546 12.9414 L 88.9022 12.9805 C 87.9387 13.0065 87.2681 13.179 86.8905 13.498 C 86.5194 13.8171 86.3338 14.237 86.3338 14.7578 C 86.3338 15.2135 86.4673 15.5391 86.7342 15.7344 C 87.0012 15.9232 87.3495 16.0176 87.7792 16.0176 C 88.4172 16.0176 88.9543 15.8288 89.3905 15.4512 C 89.8332 15.0736 90.0546 14.5365 90.0546 13.8398 L 90.0546 12.9414 Z M 103.867 14.7578 C 103.867 15.5 103.691 16.1283 103.34 16.6426 C 102.994 17.1504 102.477 17.5378 101.787 17.8047 C 101.097 18.0651 100.237 18.1953 99.2087 18.1953 C 98.447 18.1953 97.7927 18.1465 97.2458 18.0488 C 96.7054 17.9512 96.1586 17.7884 95.6052 17.5605 L 95.6052 15.0996 C 96.1976 15.3665 96.8324 15.5879 97.5095 15.7637 C 98.1931 15.9329 98.792 16.0176 99.3063 16.0176 C 99.8858 16.0176 100.299 15.9329 100.547 15.7637 C 100.8 15.5879 100.927 15.36 100.927 15.0801 C 100.927 14.8978 100.875 14.735 100.771 14.5918 C 100.674 14.4421 100.459 14.276 100.127 14.0938 C 99.7946 13.9049 99.2738 13.6608 98.5642 13.3613 C 97.8806 13.0749 97.3174 12.7852 96.8747 12.4922 C 96.4385 12.1992 96.113 11.8542 95.8981 11.457 C 95.6898 11.0534 95.5856 10.5423 95.5856 9.92383 C 95.5856 8.91471 95.9763 8.15625 96.7575 7.64844 C 97.5453 7.13411 98.5967 6.87695 99.9118 6.87695 C 100.589 6.87695 101.233 6.94531 101.845 7.08203 C 102.464 7.21875 103.099 7.43685 103.75 7.73633 L 102.851 9.88477 C 102.311 9.65039 101.8 9.45833 101.318 9.30859 C 100.843 9.15885 100.358 9.08398 99.863 9.08398 C 99.4268 9.08398 99.098 9.14258 98.8767 9.25977 C 98.6553 9.37695 98.5446 9.55599 98.5446 9.79688 C 98.5446 9.97266 98.6 10.1289 98.7106 10.2656 C 98.8278 10.4023 99.0492 10.5553 99.3747 10.7246 C 99.7067 10.8874 100.192 11.099 100.83 11.3594 C 101.448 11.6133 101.985 11.8802 102.441 12.1602 C 102.897 12.4336 103.248 12.7754 103.496 13.1855 C 103.743 13.5892 103.867 14.1133 103.867 14.7578 Z M 119.544 10.8418 C 119.544 11.9421 119.408 12.9447 119.134 13.8496 C 118.861 14.748 118.444 15.5228 117.884 16.1738 C 117.331 16.8249 116.628 17.3262 115.775 17.6777 C 114.922 18.0228 113.913 18.1953 112.748 18.1953 C 111.582 18.1953 110.573 18.0228 109.72 17.6777 C 108.867 17.3262 108.161 16.8249 107.601 16.1738 C 107.048 15.5228 106.634 14.7448 106.361 13.8398 C 106.087 12.9349 105.951 11.929 105.951 10.8223 C 105.951 9.3444 106.192 8.05859 106.673 6.96484 C 107.162 5.86458 107.91 5.01172 108.919 4.40625 C 109.929 3.80078 111.211 3.49805 112.767 3.49805 C 114.317 3.49805 115.589 3.80078 116.585 4.40625 C 117.588 5.01172 118.33 5.86458 118.812 6.96484 C 119.3 8.0651 119.544 9.35742 119.544 10.8418 Z M 109.125 10.8418 C 109.125 11.8379 109.248 12.6973 109.496 13.4199 C 109.75 14.1361 110.143 14.6895 110.677 15.0801 C 111.211 15.4642 111.901 15.6562 112.748 15.6562 C 113.607 15.6562 114.304 15.4642 114.837 15.0801 C 115.371 14.6895 115.759 14.1361 116 13.4199 C 116.247 12.6973 116.371 11.8379 116.371 10.8418 C 116.371 9.3444 116.091 8.16602 115.531 7.30664 C 114.971 6.44727 114.05 6.01758 112.767 6.01758 C 111.914 6.01758 111.218 6.21289 110.677 6.60352 C 110.143 6.98763 109.75 7.54102 109.496 8.26367 C 109.248 8.97982 109.125 9.83919 109.125 10.8418 Z M 128.503 6.87695 C 129.734 6.87695 130.727 7.35547 131.482 8.3125 C 132.244 9.26953 132.624 10.6725 132.624 12.5215 C 132.624 13.7585 132.445 14.8001 132.087 15.6465 C 131.729 16.4863 131.234 17.1211 130.603 17.5508 C 129.971 17.9805 129.245 18.1953 128.425 18.1953 C 127.898 18.1953 127.445 18.1302 127.068 18 C 126.69 17.8633 126.368 17.6908 126.101 17.4824 C 125.834 17.2676 125.603 17.0397 125.408 16.7988 L 125.251 16.7988 C 125.303 17.0592 125.342 17.3262 125.369 17.5996 C 125.395 17.873 125.408 18.14 125.408 18.4004 L 125.408 22.8047 L 122.429 22.8047 L 122.429 7.08203 L 124.851 7.08203 L 125.271 8.49805 L 125.408 8.49805 C 125.603 8.20508 125.841 7.9349 126.12 7.6875 C 126.4 7.4401 126.736 7.24479 127.126 7.10156 C 127.523 6.95182 127.982 6.87695 128.503 6.87695 Z M 127.546 9.25977 C 127.025 9.25977 126.612 9.36719 126.306 9.58203 C 126 9.79688 125.775 10.1191 125.632 10.5488 C 125.495 10.9785 125.421 11.5221 125.408 12.1797 L 125.408 12.502 C 125.408 13.2051 125.473 13.8008 125.603 14.2891 C 125.74 14.7773 125.964 15.1484 126.277 15.4023 C 126.596 15.6562 127.032 15.7832 127.585 15.7832 C 128.041 15.7832 128.415 15.6562 128.708 15.4023 C 129.001 15.1484 129.219 14.7773 129.363 14.2891 C 129.512 13.7943 129.587 13.1921 129.587 12.4824 C 129.587 11.4147 129.421 10.6107 129.089 10.0703 C 128.757 9.52995 128.243 9.25977 127.546 9.25977 Z M 142.863 14.7578 C 142.863 15.5 142.687 16.1283 142.335 16.6426 C 141.99 17.1504 141.473 17.5378 140.782 17.8047 C 140.092 18.0651 139.233 18.1953 138.204 18.1953 C 137.443 18.1953 136.788 18.1465 136.241 18.0488 C 135.701 17.9512 135.154 17.7884 134.601 17.5605 L 134.601 15.0996 C 135.193 15.3665 135.828 15.5879 136.505 15.7637 C 137.189 15.9329 137.788 16.0176 138.302 16.0176 C 138.881 16.0176 139.295 15.9329 139.542 15.7637 C 139.796 15.5879 139.923 15.36 139.923 15.0801 C 139.923 14.8978 139.871 14.735 139.767 14.5918 C 139.669 14.4421 139.454 14.276 139.122 14.0938 C 138.79 13.9049 138.269 13.6608 137.56 13.3613 C 136.876 13.0749 136.313 12.7852 135.87 12.4922 C 135.434 12.1992 135.109 11.8542 134.894 11.457 C 134.685 11.0534 134.581 10.5423 134.581 9.92383 C 134.581 8.91471 134.972 8.15625 135.753 7.64844 C 136.541 7.13411 137.592 6.87695 138.907 6.87695 C 139.585 6.87695 140.229 6.94531 140.841 7.08203 C 141.46 7.21875 142.094 7.43685 142.745 7.73633 L 141.847 9.88477 C 141.307 9.65039 140.795 9.45833 140.314 9.30859 C 139.838 9.15885 139.353 9.08398 138.859 9.08398 C 138.422 9.08398 138.094 9.14258 137.872 9.25977 C 137.651 9.37695 137.54 9.55599 137.54 9.79688 C 137.54 9.97266 137.596 10.1289 137.706 10.2656 C 137.823 10.4023 138.045 10.5553 138.37 10.7246 C 138.702 10.8874 139.187 11.099 139.825 11.3594 C 140.444 11.6133 140.981 11.8802 141.437 12.1602 C 141.892 12.4336 142.244 12.7754 142.491 13.1855 C 142.739 13.5892 142.863 14.1133 142.863 14.7578 Z" stroke-linecap="round" />
</g>
</svg>