<svg width="33" height="40" viewBox="0 0 33 40" fill="none" xmlns="http://www.w3.org/2000/svg">
<path fill-rule="evenodd" clip-rule="evenodd" d="M16.5002 10C19.605 9.99989 22.589 11.2031 24.8252 13.3569C27.0614 15.5107 28.3758 18.4474 28.4922 21.55L28.5002 22V36H30.5002C31.01 36.0006 31.5003 36.1958 31.871 36.5457C32.2416 36.8956 32.4647 37.3739 32.4946 37.8828C32.5244 38.3917 32.3589 38.8928 32.0317 39.2837C31.7045 39.6746 31.2404 39.9258 30.7342 39.986L30.5002 40H2.50023C1.99047 39.9994 1.50016 39.8042 1.12949 39.4543C0.75882 39.1044 0.535759 38.6261 0.505885 38.1172C0.476011 37.6083 0.641578 37.1072 0.968759 36.7163C1.29594 36.3254 1.76004 36.0742 2.26623 36.014L2.50023 36H4.50023V22C4.50023 18.8174 5.76451 15.7652 8.01495 13.5147C10.2654 11.2643 13.3176 10 16.5002 10ZM14.7862 19.972L11.8042 24.94C11.6201 25.2465 11.5207 25.5964 11.5161 25.954C11.5115 26.3115 11.6019 26.6638 11.778 26.975C11.9541 27.2862 12.2097 27.545 12.5186 27.7251C12.8275 27.9052 13.1787 28.0001 13.5362 28H15.9682L14.7862 29.97C14.5244 30.4241 14.4513 30.9628 14.5827 31.4703C14.714 31.9777 15.0394 32.4133 15.4887 32.6833C15.938 32.9533 16.4753 33.0361 16.985 32.914C17.4948 32.7918 17.9362 32.4743 18.2142 32.03L21.1962 27.06C21.3803 26.7535 21.4797 26.4036 21.4844 26.046C21.489 25.6885 21.3986 25.3362 21.2225 25.025C21.0463 24.7138 20.7908 24.455 20.4819 24.2749C20.173 24.0948 19.8218 23.9999 19.4642 24H17.0322L18.2142 22.03C18.4761 21.5759 18.5492 21.0372 18.4178 20.5297C18.2864 20.0223 17.9611 19.5867 17.5118 19.3167C17.0625 19.0467 16.5252 18.9639 16.0154 19.086C15.5057 19.2082 15.0643 19.5257 14.7862 19.97V19.972ZM3.58423 6.278L3.77223 6.444L5.18623 7.858C5.54492 8.21792 5.75318 8.70087 5.76869 9.20877C5.78419 9.71667 5.6058 10.2114 5.26973 10.5926C4.93366 10.9737 4.46513 11.2126 3.95928 11.2608C3.45343 11.309 2.94821 11.1628 2.54623 10.852L2.35823 10.686L0.944229 9.272C0.585533 8.91208 0.377282 8.42913 0.361773 7.92123C0.346263 7.41333 0.524659 6.91857 0.860726 6.53744C1.19679 6.15631 1.66533 5.91739 2.17118 5.8692C2.67702 5.82102 3.18225 5.96718 3.58423 6.278ZM32.0562 6.444C32.4312 6.81906 32.6418 7.32767 32.6418 7.858C32.6418 8.38833 32.4312 8.89694 32.0562 9.272L30.6422 10.686C30.4577 10.877 30.237 11.0294 29.993 11.1342C29.749 11.239 29.4866 11.2942 29.221 11.2965C28.9555 11.2988 28.6921 11.2482 28.4463 11.1476C28.2005 11.0471 27.9772 10.8986 27.7894 10.7108C27.6017 10.523 27.4531 10.2997 27.3526 10.0539C27.252 9.80812 27.2014 9.54476 27.2037 9.2792C27.206 9.01364 27.2612 8.7512 27.366 8.50719C27.4708 8.26318 27.6232 8.04249 27.8142 7.858L29.2282 6.444C29.6033 6.06906 30.1119 5.85843 30.6422 5.85843C31.1726 5.85843 31.6812 6.06906 32.0562 6.444ZM16.5002 0C17.0307 0 17.5394 0.210714 17.9144 0.585786C18.2895 0.960859 18.5002 1.46957 18.5002 2V4C18.5002 4.53043 18.2895 5.03914 17.9144 5.41421C17.5394 5.78929 17.0307 6 16.5002 6C15.9698 6 15.4611 5.78929 15.086 5.41421C14.7109 5.03914 14.5002 4.53043 14.5002 4V2C14.5002 1.46957 14.7109 0.960859 15.086 0.585786C15.4611 0.210714 15.9698 0 16.5002 0Z" fill="#FF5C00"/>
</svg>
