<svg width="14" height="15" viewBox="0 0 14 15" fill="none" xmlns="http://www.w3.org/2000/svg">
<path d="M9.31464 1.57999C9.79345 1.10137 10.4428 0.832547 11.1198 0.832672C11.7968 0.832797 12.446 1.10186 12.9246 1.58066C13.4033 2.05947 13.6721 2.70879 13.672 3.3858C13.6718 4.06281 13.4028 4.71203 12.924 5.19066L12.612 5.50266L9.00264 1.89333L9.31464 1.57999ZM8.05998 2.83599L1.19997 9.69466C1.10738 9.78767 1.0443 9.90595 1.01864 10.0347L0.346642 13.368C0.324718 13.4757 0.329778 13.5872 0.36137 13.6925C0.392963 13.7978 0.450107 13.8937 0.527714 13.9715C0.605322 14.0494 0.700982 14.1069 0.806177 14.1388C0.911372 14.1708 1.02284 14.1762 1.13064 14.1547L4.46931 13.488C4.59817 13.462 4.71646 13.3984 4.80931 13.3053L11.6693 6.44533L8.05998 2.83599Z" fill="#FF5C00"/>
</svg>
