<svg width="25" height="24" viewBox="0 0 25 24" fill="none" xmlns="http://www.w3.org/2000/svg">
<path d="M20.5002 8.17791C20.5378 8.13788 20.5701 8.13315 20.6211 8.1549C20.9007 8.27499 21.1707 8.41304 21.434 8.56401C21.8489 8.80166 22.2456 9.06641 22.6146 9.36836C22.7214 9.45566 22.7769 9.41942 22.8471 9.33337C23.0831 9.0434 23.323 8.75659 23.5615 8.46851C23.8351 8.13788 24.1083 7.80725 24.3827 7.47757C24.4347 7.41485 24.4417 7.37325 24.367 7.3121C24.0765 7.07508 23.7693 6.85981 23.4567 6.65337C22.5954 6.08478 21.6751 5.63344 20.6897 5.30596C19.5235 4.91829 18.3262 4.73989 17.0987 4.72949C16.5667 4.72508 16.0367 4.75408 15.5079 4.80923C15.4108 4.81932 15.3684 4.7982 15.3662 4.68883C15.3582 4.32133 15.3415 3.95351 15.3204 3.58632C15.3149 3.49145 15.3476 3.44953 15.4358 3.41801C15.7093 3.31999 15.9854 3.23111 16.2672 3.16083C16.7325 3.04452 17.2026 2.95312 17.6813 2.91183C17.7698 2.90427 17.8163 2.88599 17.8042 2.7722C17.7185 1.96975 17.6413 1.16635 17.5662 0.362945C17.5563 0.256098 17.5059 0.237817 17.4126 0.246958C16.8335 0.302115 16.2621 0.403919 15.6987 0.543545C15.1626 0.676552 14.6348 0.837296 14.123 1.04784C13.7655 1.19503 13.4134 1.35199 13.0729 1.53259C12.3328 1.92594 11.6495 2.39934 11.012 2.93957C10.4236 3.43819 9.89517 3.99196 9.40264 4.58009C9.27983 4.72697 9.27117 4.73138 9.12848 4.59806C8.88766 4.37365 8.6584 4.13569 8.40187 3.9305C8.26944 3.8246 8.28579 3.74612 8.3464 3.62351C8.56092 3.19077 8.80141 2.77315 9.08166 2.37791C9.16054 2.21307 9.28239 2.07754 9.3911 1.93287C9.42669 1.88559 9.46613 1.84084 9.50332 1.79451C9.57323 1.70657 9.58124 1.64227 9.47383 1.5597C9.27149 1.40431 9.05697 1.2609 8.88574 1.06864C8.46119 0.727612 8.03504 0.388475 7.61402 0.0436644C7.53866 -0.0181115 7.49602 -0.0152748 7.43894 0.0581628C7.26867 0.27753 7.09937 0.497213 6.93711 0.722569C6.18421 1.76677 5.61344 2.8967 5.25431 4.12907C4.97406 5.09006 4.83393 6.0706 4.81533 7.06878C4.80507 7.62792 4.82719 8.18579 4.89229 8.74146C4.90672 8.86438 4.87433 8.91134 4.74511 8.91355C4.3709 8.91985 3.99702 8.93498 3.62313 8.94853C3.55451 8.95105 3.51154 8.92994 3.48653 8.86217C3.33678 8.45716 3.21173 8.04522 3.12451 7.62287C3.05685 7.29477 2.98567 6.96666 2.96643 6.63099C2.96065 6.52793 2.91672 6.4901 2.80866 6.50397C2.61659 6.52856 2.42291 6.54085 2.2302 6.55976C1.60652 6.62091 0.983487 6.68426 0.35949 6.74225C0.274516 6.75013 0.238282 6.76211 0.248864 6.86044C0.295038 7.28878 0.363659 7.71301 0.453443 8.13504C0.650646 9.06263 0.956552 9.95145 1.37918 10.804C1.78705 11.6266 2.29401 12.385 2.89524 13.0796C3.44581 13.716 4.05313 14.2991 4.72394 14.8154C4.79353 14.8689 4.79802 14.9162 4.7342 14.9821C4.48666 15.2383 4.23526 15.4917 4.00215 15.7603C3.90018 15.8778 3.81969 15.8684 3.69592 15.8094C3.02158 15.487 2.38636 15.1047 1.80822 14.6338C1.72709 14.5676 1.67097 14.5679 1.6046 14.6556C1.47858 14.8217 1.34455 14.9821 1.21115 15.1425C0.820594 15.6118 0.430355 16.0814 0.0346654 16.5467C-0.0233734 16.615 -0.00253073 16.6444 0.0529428 16.6856C0.225135 16.8142 0.395404 16.9457 0.568558 17.073C1.09379 17.4591 1.65302 17.7929 2.23533 18.0866C2.7689 18.3558 3.32492 18.573 3.89665 18.7548C4.75697 19.0284 5.63845 19.1847 6.5379 19.2497C7.11925 19.2919 7.70156 19.295 8.28355 19.255C8.50448 19.2399 8.72541 19.2216 8.94602 19.2021C9.01625 19.1958 9.05922 19.2046 9.0621 19.2897C9.07429 19.6802 9.09 20.0704 9.10667 20.4606C9.10924 20.5249 9.08583 20.5627 9.0233 20.5829C8.90947 20.6198 8.79724 20.6623 8.68341 20.6989C8.04915 20.9006 7.3995 21.033 6.73702 21.1039C6.64083 21.1143 6.61197 21.142 6.62191 21.2388C6.70528 22.0416 6.78544 22.8446 6.86176 23.648C6.87074 23.741 6.89895 23.77 6.99611 23.764C7.35621 23.7426 7.70925 23.6748 8.06262 23.6115C8.91877 23.4577 9.74702 23.208 10.5429 22.8651C11.4048 22.4938 12.2116 22.0283 12.9513 21.4509C13.4541 21.0582 13.9204 20.6299 14.3622 20.1728C14.6069 19.9197 14.8278 19.6474 15.0696 19.3924C15.1331 19.244 15.1498 19.244 15.2694 19.3931C15.5406 19.6373 15.81 19.8841 16.0851 20.1246C16.1547 20.1854 16.1563 20.2365 16.1191 20.3131C15.7872 20.9945 15.3922 21.6369 14.9029 22.2206C14.8185 22.3211 14.8371 22.3747 14.9324 22.4507C15.5592 22.9487 16.1826 23.4511 16.8056 23.9538C16.8803 24.0143 16.9278 24.0222 16.9955 23.9364C17.2068 23.6682 17.4149 23.3981 17.6134 23.1198C18.111 22.4217 18.5077 21.6706 18.8331 20.8845C19.031 20.4067 19.1801 19.9106 19.3035 19.4066C19.4838 18.671 19.5787 17.9256 19.6117 17.172C19.6399 16.5268 19.604 15.8829 19.5357 15.2412C19.5258 15.1485 19.5363 15.0962 19.6505 15.0943C20.0244 15.0874 20.3986 15.0785 20.7722 15.058C20.8911 15.0514 20.9264 15.0996 20.9626 15.1964C21.2262 15.9027 21.3862 16.6318 21.467 17.3784C21.4782 17.4824 21.5167 17.5127 21.6277 17.501C22.4399 17.4175 23.2524 17.3397 24.0656 17.2659C24.1589 17.2574 24.1827 17.2268 24.1782 17.142C24.1641 16.8744 24.1192 16.6103 24.0727 16.3481C23.947 15.6418 23.7664 14.949 23.5163 14.2736C23.3153 13.7308 23.069 13.2095 22.7872 12.7043C22.4812 12.1555 22.1221 11.6405 21.7235 11.1536C21.3477 10.6943 20.9408 10.2619 20.4951 9.86603C20.2421 9.6413 19.9942 9.41122 19.7246 9.20509C19.6726 9.16538 19.6034 9.12346 19.6806 9.04277C19.9551 8.75533 20.2286 8.46693 20.5012 8.17728L20.5002 8.17791ZM18.9967 12.4597C18.332 12.4846 17.6672 12.507 17.0025 12.5306C16.8085 12.5375 16.6148 12.5508 16.4212 12.5523C16.3141 12.5533 16.2839 12.587 16.3067 12.692C16.4103 13.171 16.5081 13.6514 16.6078 14.1314C16.7518 14.8251 16.8563 15.5233 16.8842 16.2324C16.8951 16.5095 16.9005 16.7862 16.8951 17.0629C16.8945 17.0979 16.9108 17.1455 16.8743 17.1641C16.8258 17.189 16.8034 17.1342 16.7761 17.1096C16.3545 16.7298 15.935 16.3478 15.5143 15.9673C15.2668 15.7436 15.0157 15.5233 14.7701 15.297C14.7095 15.2412 14.6749 15.2437 14.6306 15.3102C14.4142 15.6358 14.1948 15.9592 13.9778 16.2844C13.5532 16.9205 13.1101 17.5429 12.5938 18.1125C12.3819 18.3463 12.1593 18.5698 11.9297 18.7863C11.8913 18.8226 11.8534 18.8916 11.7989 18.8721C11.7361 18.8494 11.7563 18.769 11.754 18.7148C11.7377 18.3382 11.7277 17.9612 11.7136 17.5846C11.6957 17.1036 11.6729 16.6226 11.6585 16.1416C11.6549 16.0282 11.6145 16.0026 11.5055 16.0253C10.9104 16.1498 10.3159 16.2806 9.71752 16.3884C8.86778 16.5416 8.01035 16.6314 7.14426 16.61C7.11668 16.6094 7.08846 16.6097 7.06121 16.605C7.03075 16.5999 6.99098 16.605 6.97752 16.5697C6.96373 16.5331 6.999 16.5132 7.01984 16.4909C7.31805 16.1706 7.61562 15.8498 7.91511 15.5305C8.21813 15.2074 8.52212 14.8853 8.82642 14.5635C8.90017 14.4854 8.94025 14.4359 8.80846 14.3527C8.26591 14.011 7.72849 13.6615 7.19909 13.3006C6.49332 12.819 5.83373 12.2822 5.2511 11.6588C5.23122 11.6377 5.18857 11.6188 5.21294 11.5822C5.23186 11.5538 5.27162 11.5639 5.30337 11.5627C6.00048 11.5349 6.69726 11.5075 7.39437 11.4798C7.60215 11.4716 7.80994 11.4577 8.01772 11.4561C8.12579 11.4552 8.14118 11.4111 8.12226 11.3203C8.00169 10.7422 7.8808 10.1645 7.76633 9.58552C7.6634 9.06515 7.58965 8.54037 7.55502 8.01086C7.53385 7.68622 7.52552 7.36127 7.53321 7.036C7.52488 6.90079 7.5191 6.80024 7.5191 6.80024C7.5191 6.80024 8.09404 7.06216 8.66256 7.609C9.42188 8.33928 9.66526 8.60561 9.72778 8.67747C9.84707 8.47923 10.4791 7.43912 10.9248 6.88629C11.3692 6.33503 11.8428 5.85501 12.177 5.53604C12.2895 5.42226 12.4046 5.311 12.5223 5.20227C12.5579 5.16949 12.5961 5.13891 12.6467 5.09573C12.7032 5.38539 12.6804 5.65771 12.6939 5.92719C12.7259 6.57142 12.7513 7.21566 12.774 7.86021C12.7779 7.96642 12.8 8.00424 12.9183 7.97966C13.4458 7.86998 13.9749 7.7666 14.504 7.66416C15.4297 7.48545 16.3631 7.3805 17.3084 7.40224C17.3572 7.4035 17.4258 7.38144 17.4485 7.43282C17.4752 7.4927 17.4049 7.52454 17.37 7.56267C16.8201 8.15553 16.2695 8.74745 15.7186 9.33936C15.6875 9.37277 15.6522 9.40271 15.6208 9.43581C15.4855 9.57827 15.4893 9.57795 15.6606 9.68795C16.5549 10.2632 17.4649 10.8173 18.28 11.5028C18.5955 11.7678 18.897 12.0484 19.1778 12.3494C19.1958 12.3686 19.2099 12.391 19.2391 12.4291C19.1474 12.4411 19.0724 12.4572 18.997 12.46L18.9967 12.4597Z" fill="#EE6557"/>
</svg>
