<svg width="21" height="24" viewBox="0 0 21 24" fill="none" xmlns="http://www.w3.org/2000/svg">
<path fill-rule="evenodd" clip-rule="evenodd" d="M0.00294453 6.87256C0.00307255 6.30721 0.395211 5.61319 0.880422 5.32129L9.36292 0.218505C9.84749 -0.0730056 10.6323 -0.0730057 11.1177 0.21953L19.6032 5.33205C20.0879 5.62394 20.4805 6.31822 20.4804 6.886L20.4768 17.0771C20.4767 17.6434 20.0839 18.3401 19.6001 18.6331L11.0993 23.7803C10.6152 24.0735 9.83149 24.0734 9.34666 23.779L0.875685 18.6344C0.391754 18.3406 -0.000255923 17.6444 1.2536e-07 17.0788L0.00294453 6.87256ZM1.78709 6.04373L10.2154 10.7498L18.251 6.10531L10.2019 1.37892L1.78709 6.04373ZM1.2435 7.56683C1.2435 7.77526 1.10715 16.7667 1.10715 16.7667C1.1028 17.0491 1.29496 17.3961 1.53821 17.543L9.42603 22.3032L9.49862 12.3924C9.49862 12.3924 1.2435 7.35828 1.2435 7.56683ZM10.987 22.2817L18.7852 17.3323C19.0838 17.1428 19.3259 16.703 19.3259 16.3492V7.51627L10.987 12.3188V22.2817Z" fill="#FF5C00"/>
<path fill-rule="evenodd" clip-rule="evenodd" d="M3.82635 12.53C3.21414 12.8836 2.40246 12.6241 2.01353 11.9505C1.62472 11.277 1.80587 10.4443 2.41808 10.0908C3.03042 9.73723 3.8421 9.99674 4.23091 10.6703C4.61971 11.3438 4.43869 12.1765 3.82635 12.53ZM7.92312 15.2185C7.31091 15.5721 6.49924 15.3126 6.1103 14.639C5.72149 13.9655 5.90265 13.1328 6.51486 12.7793C7.1272 12.4257 7.93887 12.6852 8.32768 13.3588C8.71649 14.0323 8.53546 14.865 7.92312 15.2185ZM3.82635 17.2668C3.21414 17.6204 2.40246 17.3609 2.01353 16.6874C1.62472 16.0139 1.80587 15.1812 2.41808 14.8277C3.03042 14.4741 3.8421 14.7336 4.23091 15.4072C4.61971 16.0807 4.43869 16.9134 3.82635 17.2668ZM7.92312 19.9554C7.31091 20.309 6.49924 20.0495 6.1103 19.3759C5.72149 18.7024 5.90265 17.8697 6.51486 17.5162C7.1272 17.1626 7.93887 17.4221 8.32768 18.0957C8.71649 18.7692 8.53546 19.6019 7.92312 19.9554ZM17.9395 9.96281C17.3271 9.60921 16.5156 9.86871 16.1267 10.5423C15.7378 11.2158 15.9189 12.0485 16.5312 12.4019C17.1435 12.7555 17.9552 12.496 18.344 11.8225C18.7328 11.149 18.5518 10.3163 17.9395 9.96281ZM15.8606 13.6755C15.2484 13.3219 14.4367 13.5814 14.0478 14.255C13.659 14.9285 13.8401 15.7612 14.4524 16.1146C15.0647 16.4682 15.8764 16.2087 16.2652 15.5352C16.654 14.8617 16.473 14.029 15.8606 13.6755ZM13.6842 17.2602C13.072 16.9066 12.2603 17.1661 11.8714 17.8396C11.4826 18.5132 11.6637 19.3458 12.2759 19.6993C12.8883 20.0529 13.7 19.7934 14.0888 19.1199C14.4776 18.4463 14.2965 17.6137 13.6842 17.2602ZM10.3223 4.42769C9.50921 4.42769 8.85002 5.05821 8.85002 5.83595C8.85002 6.6137 9.50921 7.24422 10.3223 7.24422C11.1354 7.24422 11.7946 6.6137 11.7946 5.83595C11.7946 5.05821 11.1354 4.42769 10.3223 4.42769Z" fill="#FF5C00"/>
</svg>
